<mxfile host="app.diagrams.net" modified="2021-05-30T05:38:18.313Z" agent="5.0 (Windows NT 10.0; Win64; x64) AppleWebKit/537.36 (KHTML, like Gecko) Chrome/91.0.4472.77 Safari/537.36 Edg/91.0.864.37" etag="hgGwjbu8jpWU4zOEPkAq" version="14.7.3" type="github">
  <diagram id="bu5lm8wExsLP5NeLCZCM" name="第 1 页">
    <mxGraphModel dx="2844" dy="1524" grid="1" gridSize="10" guides="1" tooltips="1" connect="1" arrows="1" fold="1" page="1" pageScale="1" pageWidth="827" pageHeight="583" math="0" shadow="0">
      <root>
        <mxCell id="0" />
        <mxCell id="1" parent="0" />
        <mxCell id="7SuwNwZ2lyHalRhBw8_W-41" style="edgeStyle=orthogonalEdgeStyle;rounded=0;orthogonalLoop=1;jettySize=auto;html=1;exitX=1;exitY=0.25;exitDx=0;exitDy=0;entryX=0;entryY=0.25;entryDx=0;entryDy=0;curved=1;" edge="1" parent="1" source="7SuwNwZ2lyHalRhBw8_W-26" target="7SuwNwZ2lyHalRhBw8_W-27">
          <mxGeometry relative="1" as="geometry">
            <Array as="points">
              <mxPoint x="297.5" y="228" />
              <mxPoint x="297.5" y="128" />
            </Array>
          </mxGeometry>
        </mxCell>
        <mxCell id="7SuwNwZ2lyHalRhBw8_W-43" style="edgeStyle=orthogonalEdgeStyle;curved=1;rounded=0;orthogonalLoop=1;jettySize=auto;html=1;exitX=1;exitY=0.75;exitDx=0;exitDy=0;entryX=-0.004;entryY=0.209;entryDx=0;entryDy=0;entryPerimeter=0;" edge="1" parent="1" source="7SuwNwZ2lyHalRhBw8_W-26" target="7SuwNwZ2lyHalRhBw8_W-31">
          <mxGeometry relative="1" as="geometry">
            <Array as="points">
              <mxPoint x="305.5" y="263" />
              <mxPoint x="305.5" y="300" />
              <mxPoint x="297.5" y="300" />
              <mxPoint x="297.5" y="325" />
            </Array>
          </mxGeometry>
        </mxCell>
        <mxCell id="7SuwNwZ2lyHalRhBw8_W-26" value="&lt;font color=&quot;#ff0000&quot;&gt;[1, 2, #, #, 3, 4, #, #, 5, #, # ]&lt;/font&gt;&lt;br&gt;node = TreeNode(1)&lt;br&gt;node.left = deser([2, #, #, 3, 4, #, #, 5, #, #])&lt;br&gt;node.right = deser([3, 4, #, #, 5, #, #])" style="text;html=1;strokeColor=#36393d;fillColor=#eeeeee;align=left;verticalAlign=middle;whiteSpace=wrap;rounded=0;" vertex="1" parent="1">
          <mxGeometry x="40" y="210" width="245" height="70" as="geometry" />
        </mxCell>
        <mxCell id="7SuwNwZ2lyHalRhBw8_W-42" style="edgeStyle=orthogonalEdgeStyle;rounded=0;orthogonalLoop=1;jettySize=auto;html=1;exitX=0;exitY=0.75;exitDx=0;exitDy=0;entryX=1;entryY=0.5;entryDx=0;entryDy=0;curved=1;" edge="1" parent="1" source="7SuwNwZ2lyHalRhBw8_W-27" target="7SuwNwZ2lyHalRhBw8_W-26">
          <mxGeometry relative="1" as="geometry" />
        </mxCell>
        <mxCell id="7SuwNwZ2lyHalRhBw8_W-27" value="&lt;font color=&quot;#ff0000&quot;&gt;[2, #, #, 3, 4, #, #, 5, #, # ]&lt;/font&gt;&lt;br&gt;node = TreeNode(2)&lt;br&gt;node.left = deser([#, #, 3, 4, #, #, 5, #, #])&lt;br&gt;node.right = deser([#, 3, 4, #, #, 5, #, #])&lt;br&gt;return node&amp;nbsp;" style="text;html=1;strokeColor=#36393d;fillColor=#eeeeee;align=left;verticalAlign=middle;whiteSpace=wrap;rounded=0;" vertex="1" parent="1">
          <mxGeometry x="337.5" y="110" width="245" height="70" as="geometry" />
        </mxCell>
        <mxCell id="7SuwNwZ2lyHalRhBw8_W-28" value="&lt;font color=&quot;#ff0000&quot;&gt;[#, #, 3, 4, #, #, 5, #, # ]&lt;/font&gt;&lt;br&gt;首节点为 #&amp;nbsp;&lt;br&gt;return None" style="text;html=1;strokeColor=#36393d;fillColor=#eeeeee;align=left;verticalAlign=middle;whiteSpace=wrap;rounded=0;" vertex="1" parent="1">
          <mxGeometry x="607.5" y="80" width="130" height="60" as="geometry" />
        </mxCell>
        <mxCell id="7SuwNwZ2lyHalRhBw8_W-30" value="&lt;font color=&quot;#ff0000&quot;&gt;[#, 3, 4, #, #, 5, #, # ]&lt;/font&gt;&lt;br&gt;首节点为 #&amp;nbsp;&lt;br&gt;return None" style="text;html=1;strokeColor=#36393d;fillColor=#eeeeee;align=left;verticalAlign=middle;whiteSpace=wrap;rounded=0;" vertex="1" parent="1">
          <mxGeometry x="607.5" y="150" width="130" height="60" as="geometry" />
        </mxCell>
        <mxCell id="7SuwNwZ2lyHalRhBw8_W-44" style="edgeStyle=orthogonalEdgeStyle;curved=1;rounded=0;orthogonalLoop=1;jettySize=auto;html=1;exitX=0;exitY=0.75;exitDx=0;exitDy=0;entryX=0.995;entryY=0.869;entryDx=0;entryDy=0;entryPerimeter=0;" edge="1" parent="1" source="7SuwNwZ2lyHalRhBw8_W-31" target="7SuwNwZ2lyHalRhBw8_W-26">
          <mxGeometry relative="1" as="geometry">
            <Array as="points">
              <mxPoint x="287.5" y="363" />
              <mxPoint x="287.5" y="271" />
            </Array>
          </mxGeometry>
        </mxCell>
        <mxCell id="7SuwNwZ2lyHalRhBw8_W-31" value="&lt;font color=&quot;#ff0000&quot;&gt;[3, 4, #, #, 5, #, # ]&lt;/font&gt;&lt;br&gt;node = TreeNode(3)&lt;br&gt;node.left = deser([4, #, #, 5, #, #])&lt;br&gt;node.right = deser([5, #, #])" style="text;html=1;strokeColor=#36393d;fillColor=#eeeeee;align=left;verticalAlign=middle;whiteSpace=wrap;rounded=0;" vertex="1" parent="1">
          <mxGeometry x="307.5" y="310" width="190" height="70" as="geometry" />
        </mxCell>
        <mxCell id="7SuwNwZ2lyHalRhBw8_W-32" value="&lt;font color=&quot;#ff0000&quot;&gt;[4, #, #, 5, #, # ]&lt;/font&gt;&lt;br&gt;node = TreeNode(4)&lt;br&gt;node.left = deser([#, #, 5, #, #])&lt;br&gt;node.right = deser([#, 5, #, #])" style="text;html=1;strokeColor=#36393d;fillColor=#eeeeee;align=left;verticalAlign=middle;whiteSpace=wrap;rounded=0;" vertex="1" parent="1">
          <mxGeometry x="517.5" y="270" width="170" height="70" as="geometry" />
        </mxCell>
        <mxCell id="7SuwNwZ2lyHalRhBw8_W-34" value="&lt;font color=&quot;#ff0000&quot;&gt;[#, #, 5, #, # ]&lt;/font&gt;&lt;br&gt;首节点为 #&amp;nbsp;&lt;br&gt;return None" style="text;html=1;strokeColor=#36393d;fillColor=#eeeeee;align=left;verticalAlign=middle;whiteSpace=wrap;rounded=0;" vertex="1" parent="1">
          <mxGeometry x="707.5" y="240" width="90" height="60" as="geometry" />
        </mxCell>
        <mxCell id="7SuwNwZ2lyHalRhBw8_W-35" value="&lt;font color=&quot;#ff0000&quot;&gt;[ #, 5, #, # ]&lt;/font&gt;&lt;br&gt;首节点为 #&amp;nbsp;&lt;br&gt;return None" style="text;html=1;strokeColor=#36393d;fillColor=#eeeeee;align=left;verticalAlign=middle;whiteSpace=wrap;rounded=0;" vertex="1" parent="1">
          <mxGeometry x="707.5" y="315" width="90" height="60" as="geometry" />
        </mxCell>
        <mxCell id="7SuwNwZ2lyHalRhBw8_W-38" value="&lt;font color=&quot;#ff0000&quot;&gt;[5, #, # ]&lt;/font&gt;&lt;br&gt;node = TreeNode(5)&lt;br&gt;node.left = deser([#, #])&lt;br&gt;node.right = deser([#])" style="text;html=1;strokeColor=#36393d;fillColor=#eeeeee;align=left;verticalAlign=middle;whiteSpace=wrap;rounded=0;" vertex="1" parent="1">
          <mxGeometry x="517.5" y="420" width="140" height="70" as="geometry" />
        </mxCell>
        <mxCell id="7SuwNwZ2lyHalRhBw8_W-39" value="&lt;font color=&quot;#ff0000&quot;&gt;[&amp;nbsp; #, # ]&lt;/font&gt;&lt;br&gt;首节点为 #&amp;nbsp;&lt;br&gt;return None" style="text;html=1;strokeColor=#36393d;fillColor=#eeeeee;align=left;verticalAlign=middle;whiteSpace=wrap;rounded=0;" vertex="1" parent="1">
          <mxGeometry x="697.5" y="390" width="90" height="60" as="geometry" />
        </mxCell>
        <mxCell id="7SuwNwZ2lyHalRhBw8_W-40" value="&lt;font color=&quot;#ff0000&quot;&gt;[ # ]&lt;/font&gt;&lt;br&gt;首节点为 #&amp;nbsp;&lt;br&gt;return None" style="text;html=1;strokeColor=#36393d;fillColor=#eeeeee;align=left;verticalAlign=middle;whiteSpace=wrap;rounded=0;" vertex="1" parent="1">
          <mxGeometry x="697.5" y="470" width="90" height="60" as="geometry" />
        </mxCell>
      </root>
    </mxGraphModel>
  </diagram>
</mxfile>
